<?xml version="1.0" encoding="UTF-8"?>
<svg viewBox="0 0 300 319" xmlns="http://www.w3.org/2000/svg">
<defs>
<linearGradient id="imagebot_6" x1=".06279" x2=".80265" y1=".73319" y2=".07113">
<stop offset="0" stop-color="#0a0400" stop-opacity=".749"/>
<stop offset=".5" stop-color="#4d4d4d"/>
<stop offset="1" stop-color="#2b1100"/>
</linearGradient>
<radialGradient cx="76.24641" cy="-104.87835" gradientTransform="matrix(.36426,1.30004,-1.2734,.3568,-85.07943,-166.58137)" gradientUnits="userSpaceOnUse" id="imagebot_8" r="108.55419">
<stop offset="0" stop-color="#f95"/>
<stop offset=".5" stop-color="#f60"/>
<stop offset="1" stop-color="#a14d2b"/>
</radialGradient>
</defs>
<g transform="matrix(1.03635,0,0,1.03635,-24.1073,-20.2166)">
<path d="m169.29285-82.58597c0,59.95283-48.60138,108.55419-108.55419,108.55419s-108.5542-48.60136-108.5542-108.55419 48.60137-108.5542 108.5542-108.5542 108.55419,48.60138 108.55419,108.5542z" fill="url(#imagebot_8)" transform="matrix(1.33333,0,0,1.33333,87.01566,274.36021)"/>
<path d="m135.59212,23.1438c-2.21987.50778-4.41408,1.07895-6.59375,1.6875-3.44132,2.26026-6.92739,4.81749-9.78125,7.3125-10.40351,9.09537-17.5982,17.53726-26.5,31.125-8.42137,13.29604-14.45509,27.37099-19.65625,40-2.0261,4.65916-8.87374,30.08569-10.625,39.5-.66503,3.575-1.3342,6.644-1.5,6.8125-.95519.97082-10.85099-3.45625-14.71875-6.59375-5.84695-4.74301-8.1421-8.19673-10.84375-16.21875-1.88468-5.59619-2.08395-7.83158-1.59375-16.71875-1.55194,3.84008-2.96378,7.75459-4.1875,11.75 .00014.0106-.00015.0206 0,.0312 .01435,1.01207.06845,1.97271.15625,2.84375 1.95589,15.88521 13.94442,26.69318 30.90625,33.34375 .24876.6875.0757,4.84999-.375,9.25s-.5735,12.48152-.28125,17.9375c.43297,8.08306.28394,9.72206-.78125,8.875-11.89591-3.01246-25.11602-6.21808-34.75-11.09375 .42174,3.26139.95863,6.49794 1.59375,9.6875 1.61115.71576 3.4826,1.39032 5.6875,2.0625 9.21109,3.09893 20.30203,5.8077 28.28125,8.1875 .14501,11.1288 2.2962,17.10369 3.65625,27.75l.40625,3.375-9.15625-.53125c-5.05091-.30134-9.84755-.14837-10.625.34375-1.19679.75762-1.17619.8976.09375.9375 1.21664.0382 1.16942.2975-.25,1.375-.39514.29996-.76873.74651-1.0625,1.25 .71784,1.22272 1.46637,2.42557 2.21875,3.625 .98894-.21548 1.18885.05049.8125,1.03125-.02793.0728-.03957.12233-.0625.1875l.53125.8125c.47169-.11351 1.22603-.40799 2.34375-.875 1.87395-.78299 6.51156-1.4375 10.3125-1.4375 6.78992,0 6.95329.0699 8.21875,3.125 2.62197,7.4636 6.04444,14.8994 9.28125,21.87499 2.41787,5.11084 7.35683,12.70202 13.125,20.3125 2.32178,1.49203 4.68365,2.92084 7.09375,4.28125-8.15377-9.24124-15.25524-19.41593-16.15625-24.21875-3.55284-6.49118-4.02896-14.79946-5.9375-21.12499-.40274-1.32359-.26424-2.25.34375-2.25 .56843,0 6.14178,1.89975 12.375,4.1875 13.62786,4.36376 28.12117,10.18264 38.9375,16.65624 21.98045,13.19763 42.78496,22.15405 64.375,27.71875 8.26368,2.12994 12.7781,2.63901 26,2.90625 11.21766.22674 13.16195.13711 6.5-.3125-7.58238-.51169-10.14084-1.11081-12.65625-2.90625-1.73377-1.23749-4.10134-2.25-5.28125-2.25-18.04795-4.82181-32.70124-9.79376-50.0625-18.40625-4.67501-2.34134-14.575-7.35257-22-11.15625-10.1993-6.34519-23.1334-10.22853-33.34375-14.87499-1.73312-.79654-8.81862-3.27968-15.75-5.53125l-12.59375-4.09375-1.6875-8.21875c-1.80429-8.80235-3.70803-22.94822-3.15625-23.5 .18469-.1847 3.87023.17208 8.1875.78125s19.54375,1.26331 33.84375,1.46875c21.93548-.66325 47.92259.2407 71.1875-1.46875 4.58822-.01001 34.09121-2.70227 54.3125-4.96875 28.86705-3.23555 58.45811-10.79184 72.50001-18.5 2.02664-1.11252 3.86023-2.29977 5.28125-3.34375 .17478-2.01013.31446-4.02968.40625-6.0625-.93789-.0975-2.88623.66986-6.8125,2.40625-9.92758,4.39044-32.73218,10.40798-55.21876,14.5625-12.57936,2.32411-37.80406,5.35834-62.15625,7.46875-30.36902,2.63184-115.03315,1.57578-121-1.5-1.78062-.91787-2.56388-17.7337-1.28125-27.5625l.78125-6 7.96875-.78125c10.30124-1.02026 23.71894-5.52993 35.03124-11.78125 41.76592-30.99346 85.79766-61.76667 132.56251-78.99999 10.94021-3.7998 13.82951-4.38397 23.81248-4.875l5.6875-.28125c-1.92181-1.98371-3.9057-3.90979-5.9375-5.78125-.79474-.0071-1.66513,0-2.65625,0-11.67335,0-26.31576,3.60601-40.46873,9.96875-29.50379,12.98552-56.6991,30.23175-81.84375,48.53124-9.82137,7.16031-19.94637,14.51921-22.50001,16.34375-6.3053,4.50505-18.74591,10.73792-24.18749,12.125-2.45457.62567-5.36875,1.54242-6.46875,2.0625-3.26716,1.5447-13.66809,3.96875-17.03125,3.96875h-3.125l.8125-6.25c.99637-7.55394 3.9224-24.33999 6.46875-31.75 10.45092-30.41271 35.55984-73.81166 60.5625-89.62499v4e-005z" fill="url(#imagebot_6)"/>
</g>
<title>Ebene 1</title>
</svg>
