<?xml version="1.0" encoding="UTF-8" standalone="no"?>
<svg viewBox="0 0 800 800" xmlns="http://www.w3.org/2000/svg">
<g transform="translate(0,-252.36218)">
<path d="m425.05632,753.46987c-4.47658.89529-5.81951-1.11918-9.84845,3.80511s-2.68593,7.16252-8.05787,7.16252-12.08673,0-13.42974,3.13357-5.81951,9.40081-8.95315,12.53446-6.26723,4.92422-9.40081,8.95315-8.05787,7.16252-8.95316,9.40081 1.34301,5.81958 1.34301,5.81958 4.92422-3.58129 6.71486-7.61023 11.19145-8.0578 15.22032-12.53438 11.63916-9.84852 12.53445-12.08681 1.79065-5.37186 3.58129-4.02893-2.23829,5.37194-2.23829,8.50551 0,7.16259 2.68594,8.95316 8.50551,4.9243-.44765,4.9243-15.22038.44764-19.24932,3.13357-8.05787,2.23829-12.53445,7.61016-8.0578,10.29616-11.19145,14.77274-17.04747,10.8571-17.04747,10.8571 2.97537-11.35439-4.18715-16.93885c-6.66105-5.19353-8.50085-3.78922-13.4748-4.10578-6.70131-.42646-12.74231,3.92031-12.74231,3.92031s-4.74384,3.35902-5.23612,6.97711c-1.73379,12.74153-3.81161-6.16467-3.87065,10.82058-.017,4.79773.81335,8.64218 2.5773,10.4591 5.27264,5.43084 8.59536,7.8539 14.00854,8.4512 8.6698.95667 18.74729-2.92572 18.74729-2.92572s9.97954-2.56932 14.66412-5.87382c11.99859-8.46377 27.15386-21.19372 27.15357-21.19358s5.81951,8.05787 6.26716,12.53445 3.13365,13.42974 1.79064,18.8016-3.13357,11.63917-8.0578,17.45868-15.22038,19.24932-16.56338,22.83061-18.35397,24.17354-20.59225,30.4407-4.92423,16.56339-8.50552,21.03997-10.29616,12.53445-12.08681,20.59225-7.61015,22.83062-7.61015,22.83062l-8.05788,13.8774c0,0-.89528,5.37181-5.81951,8.95311s-8.95316,6.2672-8.95316,9.4008-3.13364,6.7149 1.79065,7.1625 20.14461,2.686 21.0399-.4476 10.29616-1.7907 10.29616-4.029-3.13365-6.2671-1.79065-11.639 3.13358-17.01111 7.61016-22.38291 11.19145-16.56334 13.87745-22.83056 3.13358-9.40088 3.13358-9.40088 17.01103-21.03989 20.59225-23.27818 23.27826-16.56339 25.96419-21.03997 13.42974-4.47658 14.77274-2.68593 1.79065,8.95316 4.02894,13.42974 5.81951,12.0868 9.4008,14.32509 9.4008,11.19145 10.7438,14.32503 5.37187,11.19145 5.37187,11.19145-2.23829,6.71487-2.23829,10.7438 .89536,8.95321 2.68594,13.42971 3.13364,13.4297 2.23829,17.4587-5.81952,17.45871-4.92423,20.14461 4.92423,5.8196 7.16252,7.6102-1.34294,3.5812 0,6.2672 7.16258,5.8196 12.0868,5.8196 9.84845-3.1336 9.40081-5.8196-7.16252-14.7727-7.61016-19.2493-1.79065-14.77271-1.79065-18.35391 6.26723-28.20249 4.92423-32.23143-4.02894-21.93525-4.02894-27.30712-9.84845-35.36499-9.84845-37.60328-3.13364-20.59233-5.37193-23.27826-1.79058-12.53445-1.79058-18.80161 1.34293-17.90639 2.68593-20.14468 11.19145,19.24932 11.19145,19.24932l11.6391,19.69697c0,0 5.52435,8.01232 7.83405,10.51998 3.91698,4.25276 11.0795,7.38634 13.65356,10.07227 2.35885,2.46148 3.58122,5.37194 3.58122,3.58129 0-5.70763-4.47658-12.08673-4.47658-12.08673 3.19283,2.92515 6.36646,5.86958 9.84852,8.50544 2.12634-1.23105-9.9604-14.43697-9.9604-14.43697-5.59576-5.37187 10.18422,9.51275 10.18422,7.27446 0-3.80512-11.41527-14.32503-11.41527-14.32503l-8.50552-2.23829-7.61016-22.3829c0,0-8.05787-15.22038-8.05787-20.59232s-3.58129-18.35396-6.26722-21.48761c-2.13913-2.49566-12.2186-10.6849-16.31301-12.0731 0,0-2.74639,1.07341-2.90481.98887 2.40857-.0788 5.31522-1.89779 5.34043-4.35998l1.34294-3.80504c0,0 2.686,0 2.686-2.68593s-3.13365-8.05787-3.13365-8.05787 1.79065-4.92423.44765-8.95316-2.01447-9.6247-8.05781-12.75828c-2.89322-1.50015-11.63916-2.68593-11.63916-2.68593z" stroke="#000" stroke-width=".70629"/>
<path d="m258.37717,464.36559c-5.8496,0-11.2577,1.7404-15.6874,4.6562l-.125.062c-2.1574,1.1983-4.1347,2.83513-5.6876,5.12502-3.5106,4.23093-5.625,9.53413-5.625,15.28125 0,4.54537 1.3111,8.79149 3.5938,12.46875 1.3692,4.84661 2.5938,9.4375 2.5938,9.4375s3.8253,8.88458.6562,12.6875-4.4415,6.96471-1.9062,9.5l5.0624,5.0625c0,0 3.1563,17.76915 3.1563,25.375s-4.4375,32.30444-4.4375,37.375-2.5224,17.76437-3.1562,23.46875-1.2772,10.13937-3.8126,15.84375-7.5937,15.83971-7.5937,18.375-5.0625,3.15625-5.0625,3.15625-1.9014-5.68347 0-8.21875 3.799-4.43347 2.5312-6.96875-4.4374-11.40625-4.4374-11.40625v-4.4375l-3.8126-2.5625-5.6874-6.96875c0,0-6.3678-3.80771-15.875-1.90625s-20.9063,10.14818-20.9063,15.21875 1.2813,15.84375 1.2813,15.84375-6.3574-5.69959-7.625,1.90625-4.4368,10.77722 0,13.3125 7.6121,4.43271 10.7812,2.53125 6.3438-6.96875 6.3438-6.96875l8.25,4.4375-1.9063,5.71875c0,0-26.6386,10.75479-27.9063,12.65625s-10.7771,13.30368-13.3124,13.9375-41.8044,13.3309-46.875,16.5-29.1754,16.47757-36.7813,15.84375-21.532-6.98563-25.9687-1.28125-3.1692,11.43347 0,13.96875 8.2195,5.67389 12.6562,4.40625 3.8125-5.0625 3.8125-5.0625 6.9832,1.9191 12.6875-1.25 49.4334-8.24596 51.9688-10.78125 22.1874-12.03125 22.1874-12.03125 25.9695-9.51839 30.4063-12.6875 6.3533-.0129 10.1563,3.15625 15.8437,25.36291 15.8437,32.96875-1.2908,15.85333-5.0937,19.65625-28.4961,11.38458-31.0313,15.1875-15.2187,26-15.2187,26-.6331.6434 4.4374,3.8125 4.4376,5.6875 4.4376,5.6875-15.2107,24.09451-20.2813,28.53125-44.3709,28.51437-46.9063,34.21875-14.5937,21.5625-14.5937,21.5625l-16.4687,13.9375c0,0-10.1435,5.69229-13.3126,7.59375s-11.4062,3.18347-11.4062,5.71875 17.1209,20.90625 19.6562,20.90625 10.1387-10.13457 11.4063-13.9375 14.5817-21.55846 22.1875-24.09375 32.9559-22.17464 36.125-25.34375 1.9126-5.7059 12.6875-8.875 31.6875-21.5625 31.6875-21.5625 42.4599-24.69708 43.0938-28.5 6.3437,1.89894 6.3437,11.40625-2.5449,48.17464-3.8125,51.34375-3.1826,5.70187-1.2812,11.40625 1.2717,3.78755-2.5313,14.5625-2.5313,43.75-2.5313,43.75-.009,12.67465-3.8124,15.84375-8.871.64416-11.4063,8.25-1.9055,7.59603 2.5313,20.90624 5.0993,24.0721 11.4374,27.875 12.6611,4.4408 14.5626-2.5312-9.4992-27.88059-5.0626-34.21879 5.0626-10.79159 5.0626-19.03125 12.6699-41.80444 13.9374-46.875-1.8878-15.22908 1.2813-23.46875 17.1162-41.81804 17.75-48.15625 6.3437-49.43902 6.3437-58.3125-1.9062-58.94304-1.9062-65.28125-2.5584-41.83165-5.0938-49.4375-4.4103-13.94305-1.875-20.28125 8.8702-24.10887 6.9688-34.25 3.7941-34.2243.625-40.5625-3.1651-47.52722-2.5312-50.0625 1.2596-11.41583 5.0624-15.21875 12.6659-7.60333 16.4688-11.40625c.3298-.32976.6644-.77226 1-1.25 5.1751-4.57061 8.4062-10.98139 8.4062-18.125 0-9.60884-5.8383-17.97-14.4062-22.18747l-.6875-.9063c0,0-2.2509-.6759-5.25-1.2187l-.3125-.062-.3125-.062c-1.978-.4251-4.0386-.6875-6.1563-.6875z" stroke="#000"/>
<path d="m140.5122,343.33546c0,6.74297.20497,5.46826-.3746,8.61602-1.30985,7.11416-6.3087,3.20792-12.73673,5.24453-7.55738,2.39442-15.82264.7931-19.77211,1.63121-2.85221.60528-2.49836,5.40832-2.49836,5.40832s1.74462-10.63288 1.46263-12.75222c-.35881-2.69713-.99684-6.19219-2.04338-8.14786-3.34531-6.25163-7.58581-10.02081-10.48903-10.02081-5.15086-.0936-9.73983,1.7794-9.73983,1.7794s-1.87659-7.09353-7.11759-7.8668c-22.85122-3.37149-11.98754,4.1207-11.98754,4.1207-6.46202,2.34131-4.64057,7.52145-8.61598,8.99063-8.61604,3.18418-6.74299,5.99375-6.74299,5.99375 2.90635-.33197 12.52615-3.26951 16.10823-1.12382 .85854,1.99791-5.27876.62435-5.61914,2.62226 2.03706,3.85702 6.21396,1.08307 8.99058.74922 3.8484-.99764 2.87255,4.48174 4.49535,2.24766 1.66849-1.06786 3.82707-.17553 6.743,3.7461l-.74926,2.06035c2.12891,6.13809 6.65286,10.88864 4.44204,13.75546-6.28406,8.14866-11.56347,12.66223-13.05808,15.65139-1.00098,2.00204-3.86271,7.03118-4.74896,13.21673-.49103,3.42674-1.33042,3.48289-2.85795,6.06318-1.78179,3.00993-1.98203,6.87501-1.75833,8.4412 .74925,5.24453 2.90322,7.30488-1.59207,13.29863s-1.40477,6.18106-2.90322,11.4256-1.49845,5.99375-2.9969,11.9875-1.49839,8.99063-.7492,14.23517 6.36834,18.63683 6.36834,18.63683l3.55879.93652c0,0 9.55254,25.19251 12.54943,28.9386s6.74299,11.42559 3.7461,12.17481-14.23518,14.98439-14.98438,21.72736-1.49845,26.97189-4.49529,30.71798-8.99064,18.91778-8.99064,18.91778 4.49529,6.55567 8.99064,8.80333c.54665.27333 2.21715-.95679 2.76516-.53178 3.95839,3.06991 6.86321,11.02085 11.46997,11.02085 5.24454,0 14.23518.74921 15.73363-2.24766s-8.99064-8.24141-11.23828-17.23205-2.58205-11.5478-2.435-24.34961c.13777-11.98751 10.91298-28.84494 15.17174-35.58791 3.94031-6.23881 8.99057-12.73673 8.99057-17.23204s-10.48902-41.20707-10.48902-41.20707 10.48902,15.73362 16.48282,20.22893 11.23829,10.48907 12.73674,16.48282 2.27394,16.15424 4.49529,22.47657c4.86994,13.86056 16.10822,39.33401 16.10822,39.33401s-.47022,3.27904-1.87304,7.11758c-1.49957,4.10326 2.24764,12.73672 2.24764,12.73672s12.6943-.84334 17.60662-3.74609c8.24145-4.86992 15.35904-6.36836 16.85749-10.11445s2.80457-8.18062-.74926-9.36524c-5.61914-1.87305-12.36213,2.62226-15.35903,1.12383s-4.93898-2.58822-7.86673-8.61603c-6.3684-13.11133-9.53368-44.8134-11.98754-49.44846-3.37149-6.36837-1.20139-8.97807-5.99374-16.48282-4.70877-7.37388-9.55259-24.72424-13.86058-29.59416-3.33001-3.76439-13.86053-22.8512-13.86053-27.34651s-1.12385-8.24141 2.62225-13.48594 4.12075-11.23829 3.37149-20.22892 5.99374-14.23517 5.99374-14.23517l26.97192-5.99375c0,0 4.49529-4.49531 5.24454-8.99063s3.74609-13.48594 3.74609-13.48594-1.68693-14.9409 1.6724-25.76953c6.17867-19.91654 3.59207-12.86738 3.04973-10.37424-.0901.41425-.15479,1.44419-.15479,1.44419s9.04832-3.93681 10.04244-12.12661c.54506-4.49068.20492-10.7465-1.87304-15.7336-1.87305-4.49532-5.24455-6.74298-8.99064-8.24142s-8.94383-1.82622-11.94073-1.077-7.3845,1.54418-11.61288,6.74297c-2.85641,3.51197-4.1675,7.44537-3.41831,14.18834 .37945,3.41467 1.10181,7.34753 3.3199,9.36832 7.2569,6.61136-.93312,1.21302.84625,4.91229l5.57375,8.19597zm-27.72111,35.96251 1.49845-6.74297c7.69639,1.40744 14.23193.49299 20.97812,0l-3.7461,5.24453c-10.33908-1.36281-15.28119-.0915-18.73047,1.49844z" stroke="#000" stroke-width=".59103"/>
<g transform="matrix(.79716,0,0,.79716,1279.3089,880.57472)">
<path d="m-676.74967-321.75339c0,7.67319-7.42428,13.89354-16.58261,13.89354s-16.5826-6.22035-16.5826-13.89354 7.42428-13.89353 16.5826-13.89353 16.58261,6.22034 16.58261,13.89353z" stroke="#000" stroke-width="2" transform="matrix(1.57923,0,0,1.8365,411.90501,281.47063)"/>
<path d="m-709.01854-313.68619c0,0-1.79272-.89635-4.03361,6.2745s-3.58543,14.34172-5.82632,16.13443-17.03079,12.10083-21.51258,15.68625-13.89353,6.72268-15.68625,16.13443-7.17085,57.81504-8.06721,60.95229-5.37814,17.92715-2.68907,25.098 3.58543,15.23808 3.58543,21.0644 1.79271,6.72268 2.68907,18.37532 4.48178,21.96075.89635,32.71704-10.3081,16.13443-12.10082,25.098-17.92715,42.57697-17.92715,52.88508c0,2.21201 8.28471,3.12066 8.28914,5.1146 .0162,7.29793-2.44358,11.07455-2.72535,23.04376-.2639,11.21032.71072,15.31497.71072,23.38218s1.34453,25.098 0,34.06157-.23069,32.67199-.23069,42.08374-.18564,22.56272-1.97835,31.97447-7.06212,9.11737-1.68397,18.97729 14.26482,26.96762 20.9875,26.96762 9.82807-5.82633 9.82807-11.20447-6.38725-16.84836-6.75452-20.05929c-.74257-6.49199-1.2588-24.14426.0769-38.69715 1.39394-15.18754 14.15608-55.29842 18.59282-71.57344 2.94691-10.80998 8.221-22.83845 9.11736-27.76842s1.79271-15.68625 1.79271-15.68625l.42953-3.43164c0,0 2.70772,6.12071.91501,13.29157s-3.29104,18.9004-3.29104,28.76033-6.46014,35.51486-7.3565,50.75293-2.16773,39.67972-9.41175,57.05928c-3.35474,8.04856 3.1691,16.16082 8.54724,26.46893s10.04557,9.25249 16.76825,7.90796 3.48988-1.1589 4.38624-8.32976-4.80803-4.87945-7.94528-15.63573-1.86961-8.06176 1.71582-19.26623 17.20323-52.4237 21.23684-64.07634 9.84128-34.28679 10.73763-38.76858 9.02728-34.39328 9.02728-34.39328 3.75591,4.71396 4.54079-.77272c1.79374-12.53908 1.31834-38.01358-.55223-58.2781-2.68907-29.13161.44818-46.16239 2.68907-55.57414s6.2745-32.26886 10.30811-38.99154 26.89071-34.95793 27.78707-38.99154 16.58261-29.57979 14.78989-35.40611-3.58542-13.89353-8.06721-25.098-17.92714-30.92432-19.71986-34.95793-2.24089-6.2745-2.24089-6.2745l-10.75629,11.20446c0,0 2.24089,2.68908 5.37814,10.30811s8.96358,28.23525 11.20447,32.71704 4.03361,11.20447 2.24089,14.78989-11.20446,14.7899-14.78989,18.82351-7.17086,12.10082-11.65264,15.68625-10.75629,11.65264-14.34172,12.10082-8.06721.44818-8.06721.44818-3.13725-6.72268.44817-9.85993 8.96358-7.61904 9.85993-12.10082 4.48179-21.96076 2.68907-27.3389-4.48178-15.23807-8.06721-18.37532-6.2745-4.48179-13.44536-4.48179-13.44536.89636-16.58261,4.92997-12.10082,18.37532-12.549,21.51257-1.34453-8.06722-.44818-14.34172 .44818-10.75628 5.37815-15.23807 8.96357-11.65264 14.34171-16.13443 11.65265-9.85993 16.58261-11.20446 19.27168.44818 19.27168.44818l11.65264-1.79272" stroke="#000"/>
</g>
<g transform="matrix(.62417,0,0,.62417,1455.3876,2559.4329)">
<path d="m-1291.7188-3571.1485c-.2658.016-.5636.038-.8437.094-4.4818.8964-5.375,27.7812-5.375,27.7812l-2.6875-8.9374-6.25-2.6876-5.4062,34.9376h-6.25v10.75c0,0-11.6647,9.875-15.25,9.875s-7.1745,9.8521-11.6563,13.4374-3.5937,17.0313-3.5937,17.0313-32.2599,65.4443-33.1563,71.7187-27.7865,46.6073-36.75,59.1563-12.5313,42.1385-12.5313,54.6875-7.1874,25.9688-7.1874,25.9688c-2.6892,4.4818-14.3438,66.3489-14.3438,75.3124s-6.278,21.5084-11.6562,25.0938-18.8079,7.163-26.875,13.4375-50.2188,15.25-50.2188,15.25-124.5895-1.7843-149.6875,3.5937-27.7766,17.025-35.8437,27.7813-9.8438,44.8125-9.8438,44.8125l-13.4688,61.8438c0,0-7.1614,1.7994-16.125,6.2812s-10.7598,17.9228-11.6562,25.0938-18.8162,15.2421-30.4688,28.6874-10.7598,17.9345-11.6562,23.3126 20.6285,18.8124 32.2812,18.8124 37.625-13.4374 37.625-13.4374 7.1928-18.8407 16.1563-24.2188 23.2766-.875 31.3437-.875 18.8391-10.7682 26.9063-15.25 6.2614-17.0266 4.4687-25.0938-9.8437-10.75-9.8437-10.75-24.212-3.6072-17.9375-16.1562 23.3193-41.2255 29.5938-47.5 47.5088-5.3828 68.125,8.0625 103.0708,14.3437 106.6562,14.3437 27.7812,31.3687 27.7812,42.125 7.1859,60.0532 9.875,76.1876 5.3651,102.1828 4.4688,110.25 17.9458,52.8915 21.5312,60.0624 2.6876,34.9557 2.6876,39.4376 21.5,118.3437 21.5,118.3437-5.3818,13.4344-11.6563,18.8125-6.2713,16.1203-5.375,24.1875 6.2729,32.2666 2.6875,39.4375-16.125,25.1187-16.125,35.875 15.2421,15.2188 28.6875,15.2188 26.8818-9.8605 33.1563-17.0313 1.801-30.451 3.5937-43-.8948-51.0905-2.6875-56.4687 .875-30.4854.875-37.6563 .01-85.152 3.5938-110.25c3.5854-25.098-8.9771-57.364-12.5626-76.1875s-.875-18.8209-.875-22.4062 18.8126-122.8126 18.8126-122.8126 6.2698-33.1515 8.0624-41.2187-4.4687-12.5693-4.4687-18.8437 9.8603-38.5432 17.0313-53.7813 31.3719-69.0266 36.75-77.0937 41.2354-53.7751 48.4062-64.5313 17.9062-79.7813 17.9062-79.7813l-1.7812-51.9687c0,0 9.8536-48.4145 10.75-52s3.5807-44.8193 8.0625-51.0937 8.9687-20.625 8.9687-20.625 26.0166-13.4427 33.1876-22.4063-1.811-5.375-4.5-5.375-21.497,11.6563-26.875,11.6563-5.375-2.6876-5.375-2.6876 14.3306-28.6828 18.8124-36.75-6.2812-8.9687-6.2812-8.9687l-21.5,34.0625c0,0 5.375-34.0594 5.375-39.4375s-4.4771-8.0525-8.0625-7.1563-8.0625,38.5182-8.0625,43-8.0938,5.4063-8.0938,5.4063l-5.375-24.2187c0,0 8.9787-.9032 9.875-6.2813s-5.375-5.375-5.375-5.375l-19.7187-5.375-13.4687-11.6563 6.2812-14.3437c0,0 18.8438-23.2865 18.8438-32.25s-5.4063-4.5-5.4063-4.5l-27.7813,34.9687c0,0 0-9.8619 2.6876-14.3437s.9062-19.7187.9062-19.7187-2.3554-3.9337-6.3438-3.6876z" stroke="#000"/>
<path d="m-1263.8636-3489.4798c0,0-39.4398-2.6891-43.9216,2.6891s-11.6526,30.4761-11.6526,30.4761l-25.9944,70.8123c0,0 11.6527-14.3418 25.098-15.2381s17.9272-4.4818 27.7871,2.6891 19.7199,20.6162 19.7199,25.9943 10.7563-12.549 10.7563-12.549l5.3781-30.4761-18.8235-13.4454-17.9271-2.6891-15.2381-4.4817c0,0-2.6891-5.3782 2.6891-5.3782s34.0615.8964 38.5433-2.6891 10.7563-14.3417 10.7563-14.3417z" fill="#fff" stroke="#000"/>
<path d="m-1285.3762-3317.3792c0,0-15.2381,25.9944-16.1345,30.4761s4.4818,13.4454 4.4818,13.4454l14.3418-8.9636z" fill="#fff" stroke="#000"/>
<path d="m-1362.4629-3341.5808c0,0-10.7563,10.7562-8.9636,16.1344s3.5854,18.8235 3.5854,18.8235l5.3782-8.0672z" fill="#fff" stroke="#000"/>
<path d="m-1093.5558-3610.488c0,40.5936-32.1051,73.5013-71.7086,73.5013s-71.7086-32.9077-71.7086-73.5013 32.105-73.5013 71.7086-73.5013 71.7086,32.9076 71.7086,73.5013z" stroke="#000" stroke-width="2" transform="matrix(.78343,0,0,.78343,-268.10258,-765.77371)"/>
</g>
<g transform="matrix(1.16502,0,0,1.16502,851.93834,880.7326)">
<path d="m-333.44487-93.85458c0,11.26226-8.62823,20.39213-19.27168,20.39213s-19.27168-9.12987-19.27168-20.39213 8.62822-20.39213 19.27168-20.39213 19.27168,9.12987 19.27168,20.39213z" stroke="#000" stroke-width="2" transform="translate(0,-313.72502)"/>
<path d="m-351.8202-441.41709c0,0-14.34172,2.24089-20.16804,2.24089s-10.75628-1.79271-11.20446-8.51539-6.72268-18.37532-11.20447-20.16804-7.61903-4.0336-7.61903-4.0336 1.34453-4.48179 4.0336-4.48179 7.17086-2.68907 7.17086-4.48179 .44818-6.72267.44818-6.72267c4.00913.73881 4.90475.43977 5.37814,0 .69939-2.07114-.40359-4.50275-2.68907-7.17086l1.79272-8.5154c1.29107-5.98515-2.27794-9.81026-6.2745-13.44535-3.28664-3.05516-6.57329-3.23644-9.85993-4.03361-5.72891-1.24713-9.43032-.46675-13.44536,0-3.65318,2.05085-5.60788,5.12079-6.2745,8.96357 0,0-7.61904-.67226-9.41176,2.46499s-3.13724,2.91316-3.13724,7.84312 3.91787,11.91767 7.61903,12.99718c5.37815,1.56862 7.17086,4.48178 7.17086,4.48178s-15.81966,1.32454-19.71986,2.68908c-9.99059,3.49535-17.52917,25.22254-20.16803,33.61339-4.5213,14.20098-7.31152,21.47763-10.75629,31.3725 0,0-11.20447,9.85993-12.549,18.37533s.89636,17.92714 9.85993,25.098c3.72022,2.97617 23.30529,4.03361 26.44254,4.03361h4.92996c0,0-.44818,23.75346 2.68907,31.82068s10.75629,22.40893 10.75629,22.40893 3.58543,17.92714 3.13725,19.71985-2.24089,8.5154 2.68907,11.20447 11.65264-2.24089 13.44536-4.03361 1.34453-7.61903 4.92996-10.30811 7.61904-10.75628 7.61904-10.75628l-3.13725,6.2745c0,0 .89636,1.34453 2.68907,4.92996s8.06721,16.58261 8.06721,16.58261-2.68907,5.37814-2.68907,10.75629-2.68907,5.37814 3.13725,8.96357 9.85993,2.68907 12.549,5.82632 7.17086,8.06722 11.65265,8.96357 13.44536,1.34454 12.549-3.13725-3.58543-14.34171-8.96357-16.58261-17.03079-16.13443-17.03079-21.06439-5.32297-28.06973-7.17086-33.61339c-2.68907-8.06722-6.29622-17.43483-7.17085-20.16804-3.58544-11.20447-11.65265-30.02797-11.65265-30.02797-4.48179-9.29345-8.96357-17.74192-13.44536-24.64982-2.53968-6.25166-5.07935-10.73406-7.61903-15.23807 0,0 6.2745-5.37815 7.17085-8.06722s3.58543-7.17086 3.58543-7.17086c8.72708,1.44433 16.9622.92082 25.098,0 2.27012,4.71129 4.49956,9.4497 8.5154,12.99718 2.47079,3.94524 5.30422,4.81074 8.06721,6.2745l25.99436-20.16803c.18866-1.74037 1.87549-1.48316.44818-5.37815 .40726-2.63464-1.95817-3.60567-4.48179-4.48178l.44818-1.79272 4.2577-1.56862c.67226-2.0168-6.49859-1.12045-6.49859-1.12045z" stroke="#000"/>
<path d="m-400.67167-443.65798 4.92997-3.13725 6.72268,7.61903z" fill="#fff" stroke="#000"/>
<path d="m-376.47002-427.97173 8.51539,8.51539 5.82632-5.37814z" fill="#f9f9f9" stroke="#000"/>
<path d="m-418.59881-339.68055 .89636,19.27168c0,0 5.37814,0 6.2745,1.79272s8.96357,0 8.96357,0z" fill="#fff" stroke="#000"/>
</g>
</g>
</svg>
