<?xml version="1.0" encoding="UTF-8"?>
<!DOCTYPE svg PUBLIC "-//W3C//DTD SVG 1.1//EN" "http://www.w3.org/Graphics/SVG/1.1/DTD/svg11.dtd">
<!-- Creator: CorelDRAW X7 -->
<svg xmlns="http://www.w3.org/2000/svg" xml:space="preserve" width="176.665mm" height="75.3277mm" version="1.1" style="shape-rendering:geometricPrecision; text-rendering:geometricPrecision; image-rendering:optimizeQuality; fill-rule:evenodd; clip-rule:evenodd"
viewBox="0 0 17915 7639"
 xmlns:xlink="http://www.w3.org/1999/xlink">
 <defs>
  <style type="text/css">
   <![CDATA[
    .fil0 {fill:#373435;fill-rule:nonzero}
    .fil1 {fill:#03A9F4;fill-rule:nonzero}
    .fil2 {fill:#E53935;fill-rule:nonzero}
   ]]>
  </style>
 </defs>
 <g id="Layer_x0020_1">
  <metadata id="CorelCorpID_0Corel-Layer"/>
  <polygon class="fil0" points="73,4068 1071,4068 2235,3342 2321,3288 2410,3336 3891,4118 4870,3810 4999,3770 5072,3885 6905,6803 8851,605 9041,0 9191,616 10065,4202 10457,4077 10508,4061 10560,4076 11253,4277 14366,2704 14446,2663 14526,2704 17362,4177 17915,4194 17904,4547 17310,4528 17270,4527 17235,4509 14444,3060 11350,4624 11289,4655 11222,4636 10513,4430 9992,4595 9812,4653 9767,4469 8998,1316 7128,7273 7013,7639 6810,7315 4846,4188 3926,4477 3856,4499 3791,4465 2335,3696 1215,4395 1172,4422 1122,4422 73,4422 "/>
  <path class="fil1" d="M704 2947l497 0c332,0 553,11 663,33 111,23 189,80 236,173 47,92 40,239 -20,441 -55,184 -118,308 -189,372 -71,63 -185,101 -343,114 130,30 212,70 245,121 33,51 48,98 47,140 0,43 -30,160 -86,351l-186 626 -653 0 235 -789c37,-127 49,-205 36,-236 -14,-30 -68,-45 -165,-45l-317 1070 -704 0 704 -2371zm584 405l-157 527c79,0 136,-9 173,-28 37,-19 71,-81 102,-186l39 -130c22,-75 22,-125 -2,-148 -23,-24 -75,-35 -155,-35z"/>
  <polygon id="1" class="fil1" points="3247,2947 2543,5318 1839,5318 2543,2947 "/>
  <polygon id="2" class="fil1" points="4942,2947 4801,3421 4388,3421 3824,5318 3121,5318 3684,3421 3268,3421 3408,2947 "/>
  <path id="3" class="fil1" d="M7268 2947l-705 2371 -614 0 473 -1601 -719 1601 -431 0 207 -1565 -466 1565 -615 0 704 -2371 908 0c-17,143 -39,312 -66,505l-79 602 488 -1107 915 0z"/>
  <path id="4" class="fil1" d="M8740 4337c-71,238 -127,407 -170,505 -42,100 -109,190 -200,272 -92,82 -201,145 -329,189 -127,44 -267,66 -419,66 -145,0 -268,-21 -370,-62 -103,-42 -177,-104 -222,-187 -46,-83 -60,-173 -45,-271 16,-97 60,-268 132,-512l121 -406c71,-238 127,-407 169,-505 42,-100 109,-190 201,-272 91,-82 201,-145 328,-189 128,-44 268,-66 420,-66 144,0 267,21 370,62 102,42 177,104 222,187 45,83 60,173 44,271 -16,97 -59,268 -132,512l-120 406zm-473 -779c33,-110 47,-180 43,-211 -5,-31 -28,-46 -70,-46 -36,0 -67,12 -94,37 -26,25 -58,98 -94,220l-328 1107c-41,137 -60,222 -57,254 3,32 27,48 73,48 46,0 82,-18 106,-55 24,-37 57,-126 98,-265l323 -1089z"/>
  <path id="5" class="fil2" d="M10689 3666l-653 0 52 -175c25,-82 32,-134 22,-157 -10,-22 -34,-33 -73,-33 -42,0 -78,15 -109,45 -30,30 -55,76 -73,137 -23,79 -28,138 -16,178 12,40 64,88 156,145 263,164 419,298 469,402 50,105 41,273 -28,505 -50,169 -110,293 -179,374 -69,80 -175,147 -320,201 -145,54 -303,81 -474,81 -188,0 -339,-31 -453,-94 -114,-62 -177,-142 -190,-238 -12,-97 8,-235 61,-412l46 -155 652 0 -86 288c-26,89 -34,146 -23,171 11,26 39,38 86,38 47,0 86,-16 119,-48 32,-32 57,-80 76,-143 42,-139 47,-231 16,-273 -32,-43 -120,-115 -264,-216 -144,-102 -237,-175 -280,-221 -43,-46 -71,-110 -84,-191 -13,-81 -1,-184 36,-310 54,-181 119,-314 197,-398 78,-84 182,-150 314,-197 132,-48 281,-71 448,-71 182,0 329,26 443,77 112,52 178,117 196,196 18,79 -1,212 -56,400l-28 94z"/>
  <path id="6" class="fil2" d="M12395 2947l-302 2371 -718 0 88 -426 -253 0 -165 426 -727 0 1061 -2371 1016 0zm-826 1526c46,-269 110,-602 190,-999 -205,456 -347,788 -429,999l239 0z"/>
  <path id="7" class="fil2" d="M14512 2947l-470 1585c-54,180 -98,306 -133,379 -35,73 -97,148 -185,224 -88,77 -192,135 -311,175 -119,39 -251,59 -397,59 -161,0 -296,-23 -405,-70 -110,-47 -184,-108 -223,-183 -39,-76 -51,-155 -38,-239 14,-83 61,-259 140,-526l417 -1404 704 0 -528 1779c-31,103 -45,169 -41,198 4,29 26,43 64,43 43,0 76,-16 98,-47 22,-32 51,-107 86,-225l519 -1748 703 0zm-89 -471l-667 396 -338 0 411 -396 594 0z"/>
  <path id="8" class="fil2" d="M14785 2947l526 0c338,0 564,13 675,41 111,27 189,72 233,135 43,62 62,132 54,208 -7,77 -44,227 -110,452l-247 831c-63,212 -117,355 -161,426 -44,72 -101,129 -169,169 -69,41 -147,69 -236,85 -88,16 -216,24 -384,24l-885 0 704 -2371zm584 405l-464 1561c99,0 166,-18 199,-53 34,-36 75,-133 122,-291l274 -923c32,-107 48,-176 50,-206 1,-31 -10,-53 -34,-67 -23,-14 -72,-21 -147,-21z"/>
  <polygon id="9" class="fil2" points="16673,2947 17844,2947 17704,3421 17236,3421 17101,3873 17538,3873 17405,4323 16968,4323 16813,4844 17329,4844 17188,5318 15969,5318 "/>
 </g>
</svg>
