<svg version="1.1" xmlns="http://www.w3.org/2000/svg" x="0px" y="0px" viewBox="0 0 283.465 283.465">
	<g id="medi-logo">
		<polygon fill="#E6007E" points="141.732,0 283.465,0 283.465,283.465 0,283.465 0,0"/>
		<g>
			<path fill="#FFFFFF" d="M36.142,165.102h14.181v4.33c2.923-2.273,7.686-5.195,15.264-5.195c5.628,0,10.176,2.381,12.666,6.061
				c4.221-3.355,9.09-6.061,15.91-6.061c12.449,0,17.537,7.9,17.537,18.727v35.287H97.303v-33.123c0-6.062-1.84-9.525-8.011-9.525
				c-3.032,0-6.495,1.623-8.66,2.924c0.218,1.082,0.542,3.137,0.542,5.193v34.531H66.668v-33.342c0-6.707-2.705-9.307-7.686-9.307
				c-2.922,0-6.062,1.73-8.335,3.355v39.293H36.142V165.102z"/>
			<path fill="#FFFFFF" d="M119.492,191.73c0-15.045,8.66-27.494,25.221-27.494c17.105,0,22.625,11.904,22.625,24.678
				c0,1.301-0.108,3.465-0.325,4.98h-32.69c0.215,8.768,3.463,14.395,13.746,14.395c6.388,0,11.908-1.514,15.696-3.246v11.041
				c-4.33,1.732-10.284,3.033-16.778,3.033C127.61,219.117,119.492,207.857,119.492,191.73z M153.156,185.451v-0.543
				c0-5.086-2.705-10.064-8.443-10.064c-5.627,0-9.308,3.789-9.958,10.607H153.156z"/>
			<path fill="#FFFFFF" d="M172.924,192.27c0-15.584,9.42-28.033,24.572-28.033c5.305,0,8.229,1.189,9.635,1.84v-21.432h14.396
				v73.605h-14.396v-4.115c-2.382,2.6-6.604,4.982-12.665,4.982C179.745,219.117,172.924,208.184,172.924,192.27z M207.131,204.828
				v-28.143c-1.518-0.758-3.897-1.518-6.712-1.518c-8.336,0-12.23,6.387-12.23,16.453c0,8.984,2.704,16.129,11.039,16.129
				C202.368,207.75,205.291,206.668,207.131,204.828z"/>
			<path fill="#FFFFFF" d="M231.299,149.514c0-4.547,3.682-8.336,8.769-8.336c4.98,0,8.662,3.789,8.662,8.336
				s-3.682,8.443-8.662,8.443C234.98,157.957,231.299,154.061,231.299,149.514z M232.706,165.102h7.308h7.309v53.148h-14.616
				V165.102z"/>
		</g>
		<g>
			<polygon fill="#FFFFFF" points="247.323,245.197 121.182,245.197 121.182,238.819 121.182,232.441 247.323,232.441"/>
			<polygon fill="#FFFFFF" points="111.699,245.197 36.142,245.197 36.142,238.819 36.142,232.441 111.699,232.441"/>
		</g>
	</g>
</svg>
