<?xml version="1.0" encoding="utf-8"?>
<!-- Generator: Adobe Illustrator 15.1.0, SVG Export Plug-In . SVG Version: 6.00 Build 0)  -->
<!DOCTYPE svg PUBLIC "-//W3C//DTD SVG 1.1//EN" "http://www.w3.org/Graphics/SVG/1.1/DTD/svg11.dtd">
<svg version="1.1" id="Layer_1" xmlns="http://www.w3.org/2000/svg" xmlns:xlink="http://www.w3.org/1999/xlink" x="0px" y="0px"
	 width="238px" height="40px" viewBox="0 0 238 40" enable-background="new 0 0 238 40" xml:space="preserve">
<path fill="#231F20" d="M217.503,31.55c-0.047-0.98-0.839-1.156-1.645-1.156c-0.679,0-1.352,0-2.028,0c0,1.544,0,3.089,0,4.634
	c0.189,0,0.381,0,0.57,0c0-0.711,0-1.423,0-2.136c0.348,0,0.697,0,1.043,0c0.442,0.713,0.882,1.425,1.324,2.136
	c0.228,0,0.455,0,0.68,0c-0.467-0.714-0.933-1.428-1.402-2.142C216.93,32.847,217.546,32.538,217.503,31.55z M214.4,32.441
	c0-0.549,0-1.099,0-1.646c0.444,0,0.886,0,1.327,0c0.566,0,1.159,0.113,1.159,0.825c0,0.711-0.593,0.821-1.159,0.821
	C215.286,32.441,214.845,32.441,214.4,32.441z"/>
<path fill="#231F20" d="M215.38,28.562c-2.297,0-4.158,1.859-4.158,4.155c0,2.294,1.861,4.151,4.158,4.151
	c2.293,0,4.151-1.857,4.151-4.151C219.531,30.421,217.673,28.562,215.38,28.562z M215.38,36.321c-1.983,0-3.488-1.67-3.488-3.604
	c0-1.938,1.505-3.608,3.488-3.608c1.977,0,3.481,1.671,3.481,3.608C218.861,34.651,217.356,36.321,215.38,36.321z"/>
<path fill="#EF3E42" d="M84.672,17.427c0.838,10.71-7.957,20.151-18.61,20.48c-11.258,0.349-19.405-9.473-17.181-20.48
	C60.813,17.427,72.742,17.427,84.672,17.427z"/>
<path fill="#EF3E42" d="M83.555,12.53c-2.63-6.753-9.144-10.794-16.28-10.608C60.229,2.105,53.8,6.313,50.604,12.53
	C61.587,12.53,72.571,12.53,83.555,12.53z"/>
<path fill="#231F20" d="M12.813,17.427c6.413,0,12.826,0,19.237,0c1.329,0,2.483-1.078,2.605-2.402
	c0.127-1.383-0.914-2.494-2.303-2.494c-7.675,0-15.351,0-23.026,0c0.974-2.834,1.95-5.669,2.925-8.503
	c0.25-0.727,0.953-1.244,1.727-1.244c6.757,0,13.514,0,20.271,0c6.904,0,12.086,5.676,11.446,12.546
	c-0.609,6.581-6.347,11.808-12.952,11.812c-4.222,0.002-8.443,0.003-12.664,0.004c-1.177,0.001-2.191,0.741-2.551,1.789
	c-0.767,2.228-1.534,4.46-2.302,6.689c-0.25,0.727-0.948,1.245-1.722,1.245c-3.111,0-6.224,0-9.334,0
	c-1.654,0-2.673-1.569-2.142-3.115c1.303-3.791,2.608-7.583,3.912-11.377C6.938,19.473,9.716,17.427,12.813,17.427z"/>
<path fill="#231F20" d="M191.334,36.868c-0.718-2.688-1.44-5.377-2.159-8.068c-0.271-1.021-1.131-1.656-2.176-1.656
	c-0.997,0.001-1.994,0.001-2.992,0.001c-1.176,0.001-2.192,0.741-2.552,1.789c-0.765,2.228-1.532,4.46-2.299,6.689
	c-0.251,0.727-0.95,1.245-1.724,1.245c-3.109,0-6.224,0-9.333,0c-1.654,0-2.674-1.569-2.143-3.115
	c1.306-3.791,2.607-7.583,3.913-11.377c0.998-2.903,3.774-4.949,6.871-4.949c6.413,0,12.825,0,19.238,0
	c1.329,0,2.482-1.078,2.605-2.402c0.127-1.383-0.915-2.494-2.305-2.494c-7.675,0-15.35,0-23.024,0
	c0.974-2.834,1.949-5.669,2.924-8.503c0.249-0.727,0.95-1.244,1.729-1.244c6.755,0,13.514,0,20.269,0
	c6.903,0,12.088,5.676,11.447,12.546c-0.429,4.641-3.409,8.606-7.445,10.545c0.983,3.65,1.964,7.303,2.948,10.994
	C200.529,36.868,195.932,36.868,191.334,36.868z"/>
<path fill="#231F20" d="M106.667,12.53c0.868-2.525,1.739-5.052,2.606-7.579c0.371-1.073-0.352-2.168-1.501-2.168
	c-3.413,0-6.825,0-10.238,0c-0.774,0-1.476,0.517-1.727,1.244c-0.975,2.834-1.95,5.669-2.925,8.503
	C97.478,12.53,102.072,12.53,106.667,12.53z"/>
<path fill="#231F20" d="M115.179,36.868c-9.152,0-18.302,0-27.453,0c-1.653,0-2.673-1.569-2.141-3.115
	c1.873-5.441,3.743-10.884,5.615-16.326c4.594,0,9.19,0,13.785,0c-0.642,1.865-1.282,3.729-1.924,5.592
	c-0.531,1.547,0.512,3.117,2.163,3.117c3.898,0,7.797,0,11.696,0c1.652,0,2.707,1.566,2.176,3.109
	c-0.731,2.125-1.463,4.252-2.192,6.378C116.65,36.35,115.951,36.868,115.179,36.868z"/>
<path fill="#231F20" d="M146.881,3.436c-2.527,3.032-5.055,6.064-7.584,9.094c6.808,0,13.619,0,20.431,0
	c-0.255-2.772-0.511-5.546-0.766-8.32c-0.078-0.838-0.763-1.427-1.601-1.427c-3.028,0-6.057,0-9.086,0
	C147.735,2.783,147.226,3.024,146.881,3.436z"/>
<path fill="#231F20" d="M149.643,36.868c3.443,0,6.884,0,10.327,0c1.037,0,1.909-0.944,1.813-1.985
	c-0.535-5.818-1.068-11.638-1.604-17.456c-8.323,0-16.642,0-24.963,0c-4.305,5.163-8.61,10.325-12.916,15.489
	c-1.31,1.568-0.394,3.952,1.704,3.952c2.737,0,5.472,0,8.206,0c0.542,0,1.055-0.269,1.397-0.68c2.261-2.708,4.518-5.417,6.777-8.125
	c0.495-0.596,1.235-0.921,2.011-0.921c0.925,0,1.847,0,2.771,0c1.203,0,2.191,0.833,2.302,2.039
	c0.191,2.077,0.383,4.154,0.572,6.229C148.119,36.249,148.805,36.868,149.643,36.868z"/>
</svg>
